<?xml version="1.0" encoding="UTF-8" standalone="no"?>
<svg
   xmlns:dc="http://purl.org/dc/elements/1.1/"
   xmlns:cc="http://creativecommons.org/ns#"
   xmlns:rdf="http://www.w3.org/1999/02/22-rdf-syntax-ns#"
   xmlns:svg="http://www.w3.org/2000/svg"
   xmlns="http://www.w3.org/2000/svg"
   xmlns:sodipodi="http://sodipodi.sourceforge.net/DTD/sodipodi-0.dtd"
   xmlns:inkscape="http://www.inkscape.org/namespaces/inkscape"
   width="50"
   height="56"
   viewBox="0 0 50 56"
   version="1.1"
   id="svg2"
   inkscape:version="0.48.4 r9939"
   sodipodi:docname="account-image.svg">
  <metadata
     id="metadata21">
    <rdf:RDF>
      <cc:Work
         rdf:about="">
        <dc:format>image/svg+xml</dc:format>
        <dc:type
           rdf:resource="http://purl.org/dc/dcmitype/StillImage" />
        <dc:title>FC80B197-C36B-426A-AF95-D82081189548</dc:title>
      </cc:Work>
    </rdf:RDF>
  </metadata>
  <sodipodi:namedview
     pagecolor="#ffffff"
     bordercolor="#666666"
     borderopacity="1"
     objecttolerance="10"
     gridtolerance="10"
     guidetolerance="10"
     inkscape:pageopacity="0"
     inkscape:pageshadow="2"
     inkscape:window-width="1332"
     inkscape:window-height="816"
     id="namedview19"
     showgrid="false"
     inkscape:zoom="1.18"
     inkscape:cx="100"
     inkscape:cy="100"
     inkscape:window-x="65"
     inkscape:window-y="38"
     inkscape:window-maximized="0"
     inkscape:current-layer="svg2" />
  <!-- Generator: sketchtool 46.2 (44496) - http://www.bohemiancoding.com/sketch -->
  <title
     id="title4">FC80B197-C36B-426A-AF95-D82081189548</title>
  <desc
     id="desc6">Created with sketchtool.</desc>
  <defs
     id="defs8" />
  <path
     d="m 49.030188,55.03165 0.0014,-3.04072 c -0.120427,-5.62848 -1.765271,-7.40966 -3.498232,-8.61952 -0.321628,-0.22502 -0.644722,-0.42958 -0.963414,-0.63415 -0.969282,-0.62685 -1.934161,-1.1178 -2.89904,-1.53571 -1.750591,-0.75396 -6.435469,-3.379713 -9.435847,-4.846737 0.277568,-0.302466 0.550729,-0.619542 0.819487,-0.961456 l 0.0073,0.0043 c 0.02936,-0.04089 0.05875,-0.0789 0.08224,-0.118352 1.724152,-2.321817 2.540702,-4.409845 3.567262,-7.317605 0.38037,-0.378443 0.964879,-0.819717 1.345249,-1.196702 1.426027,-1.034518 3.299979,-5.0367 0.650596,-7.16564 l 0.207078,-1.117804 c 0.135112,-1.01552 0.270223,-2.031049 0.406806,-3.045106 0.133642,-1.816253 0.186511,-3.313964 0.03082,-4.833593 C 39.08757,8.038478 38.4546,6.545154 36.780381,4.616394 35.317639,2.927266 33.616985,1.381335 31.170272,1.105172 c -4.65257,-0.524564 -5.674722,0.536253 -8.0436,1.861546 -0.406808,0.227944 -1.044185,0.694062 -1.527355,0.745204 -0.04993,0.0058 -0.101334,0.01607 -0.145392,0.0014 C 20.474356,3.38602 19.491852,3.047025 18.447668,3.169764 17.30215,3.304194 16.733797,3.698713 15.85263,4.40008 c -4.555643,3.620812 -4.040158,9.145544 -3.883015,14.810543 -3.4629913,1.988674 -1.434837,6.452582 0.08224,7.554319 0.380371,0.37698 0.964879,0.818259 1.345251,1.196702 1.025093,2.907755 1.843109,4.995784 3.56726,7.317605 l 0.07049,0.113973 c 0.374498,0.477802 0.760742,0.903009 1.151391,1.303372 -3.364591,1.502094 -8.2183642,3.799076 -9.8573374,4.504826 -0.9663454,0.41791 -1.9312246,0.91032 -2.8990407,1.53571 -0.3172208,0.20457 -0.6417852,0.40913 -0.9634133,0.63415 -1.7329179,1.2099 -3.3777643,2.99108 -3.49819287,8.61956 l 0.001455,3.04072"
     id="path17"
     inkscape:connector-curvature="0"
     style="fill:none;stroke:#d11a08;stroke-width:1.93669343;stroke-linecap:round;stroke-linejoin:round" />
</svg>
