<?xml version="1.0" encoding="UTF-8" standalone="no"?>
<svg
   xmlns:dc="http://purl.org/dc/elements/1.1/"
   xmlns:cc="http://creativecommons.org/ns#"
   xmlns:rdf="http://www.w3.org/1999/02/22-rdf-syntax-ns#"
   xmlns:svg="http://www.w3.org/2000/svg"
   xmlns="http://www.w3.org/2000/svg"
   xmlns:sodipodi="http://sodipodi.sourceforge.net/DTD/sodipodi-0.dtd"
   xmlns:inkscape="http://www.inkscape.org/namespaces/inkscape"
   width="96px"
   height="22px"
   viewBox="0 0 96 22"
   version="1.1"
   id="svg2"
   inkscape:version="0.48.4 r9939"
   sodipodi:docname="logo.svg">
  <metadata
     id="metadata21">
    <rdf:RDF>
      <cc:Work
         rdf:about="">
        <dc:format>image/svg+xml</dc:format>
        <dc:type
           rdf:resource="http://purl.org/dc/dcmitype/StillImage" />
      </cc:Work>
    </rdf:RDF>
  </metadata>
  <sodipodi:namedview
     pagecolor="#ffffff"
     bordercolor="#666666"
     borderopacity="1"
     objecttolerance="10"
     gridtolerance="10"
     guidetolerance="10"
     inkscape:pageopacity="0"
     inkscape:pageshadow="2"
     inkscape:window-width="1210"
     inkscape:window-height="762"
     id="namedview19"
     showgrid="false"
     inkscape:zoom="3.21875"
     inkscape:cx="48"
     inkscape:cy="11"
     inkscape:window-x="65"
     inkscape:window-y="38"
     inkscape:window-maximized="0"
     inkscape:current-layer="svg2" />
  <!-- Generator: sketchtool 46.2 (44496) - http://www.bohemiancoding.com/sketch -->
  <title
     id="title4">A07B0551-CD7B-4CBC-AC4D-A30D282AFF3C</title>
  <desc
     id="desc6">Created with sketchtool.</desc>
  <defs
     id="defs8" />
  <g
     id="--Регистрация_Mobile"
     transform="matrix(1.0014133,0,0,1.0126438,-3.3731817e-4,-0.05948824)"
     style="fill:none;stroke:none">
    <g
       id="1-5-Registration-Mobile-(320px)"
       transform="translate(-119,-13)"
       style="fill:#ffffff">
      <g
         id="head">
        <g
           id="logo"
           transform="translate(119,13)">
          <path
             d="m 0.79107368,12.608761 2.52210532,0 c 0.7637894,0 1.3852631,-0.215686 1.8829473,-0.607373 0.5322105,-0.425333 0.8176842,-1.024078 0.8176842,-1.733255 0,-1.4200781 -0.8176842,-2.0507448 -2.6534737,-2.0507448 l -2.56926312,0 0,4.3913728 z m 0,5.701882 3.05768422,0 c 0.8252632,0 1.5174737,-0.225176 2.0025263,-0.647921 0.503579,-0.437412 0.7705263,-1.082746 0.7705263,-1.859216 0,-0.886902 -0.2534737,-1.564157 -0.7553684,-2.007608 C 5.3670737,13.352447 4.6041263,13.128133 3.6028632,13.128133 l -2.81178952,0 0,5.18251 z m -0.79073683789,0.516784 0,-11.1276858 3.92926315789,0 c 0.9237895,0 1.6867368,0.2312157 2.2054737,0.6694902 0.5170526,0.4356863 0.7882105,1.0784313 0.7882105,1.8574906 0,0.64447 -0.2298947,1.200078 -0.680421,1.651294 -0.3907369,0.391686 -0.9802106,0.706588 -1.6058948,0.861882 l -0.040421,0.0095 0,0.06557 0.048,0.006 c 1.8812631,0.204471 2.888421,1.219059 2.888421,2.856549 0,0.942118 -0.3722105,1.735843 -1.0812631,2.291451 -0.711579,0.564235 -1.7237895,0.858431 -2.9288421,0.858431 l -3.52252635789,0 z m 48.14905215789,0 0,-6.476627 0.04884,-0.728157 -0.310737,0.704 -2.869053,6.500784 -0.05558,0 -3.071158,-6.543058 -0.294737,-0.609098 0.032,0.675529 0,6.476627 -0.424421,0 0,-7.63098 1.012211,0 2.959158,6.355843 2.794105,-6.355843 0.930526,0 0,7.63098 -0.751158,0 z m 16.873264,0 0,-3.869411 -4.652632,0 0,3.869411 -0.750316,0 0,-7.63098 0.750316,0 0,3.328471 4.652632,0 0,-3.328471 0.750315,0 0,7.63098 -0.750315,0 z m 8.492631,0 0,-6.591372 -5.034105,6.591372 -0.449684,0 0,-7.63098 0.748631,0 0,6.465412 4.992842,-6.465412 0.490948,0 0,7.63098 -0.748632,0 z m 5.724632,-7.197882 c -0.624,0 -1.144421,0.154432 -1.498948,0.447765 -0.354526,0.293333 -0.542315,0.718667 -0.542315,1.228549 0,0.547843 0.193684,1.006823 0.560842,1.330353 0.419368,0.366666 1.055158,0.554745 1.887158,0.554745 l 1.434105,0 0,-3.561412 -1.840842,0 z m -2.84379,7.281569 c -0.318316,0 -0.544842,-0.05349 -0.706526,-0.169961 l 0.165895,-0.336471 c 0.110316,0.03796 0.222315,0.07247 0.339368,0.07247 0.386526,0 0.501895,-0.277804 0.578526,-0.793726 l 0.121264,-0.790274 c 0.161684,-1.08102 0.819368,-1.336392 1.502315,-1.453725 l 0.444632,-0.07678 -0.450526,-0.03106 c -0.599579,-0.0371 -1.110737,-0.249333 -1.475369,-0.607372 -0.357894,-0.352 -0.547368,-0.815294 -0.547368,-1.336392 0,-1.269098 1.137684,-2.191373 2.709052,-2.191373 l 2.751158,0 0,7.63098 -0.747789,0 0,-3.202509 -1.881263,0 c -0.97179,0 -1.340632,0.27349 -1.473685,1.08447 l -0.162526,1.041334 c -0.114526,0.749725 -0.529684,1.160392 -1.167158,1.160392 l 0,0 z M 53.767074,14.83378 c -1.405474,0 -2.243369,0.689334 -2.243369,1.841961 0,1.044784 0.688842,1.719451 1.758316,1.719451 1.173053,0 2.182737,-0.540941 2.846316,-1.520157 l 0.0084,-0.01467 0,-2.026589 -2.369684,0 z m 3.413894,4.120471 c -0.64421,0 -1.04421,-0.459843 -1.04421,-1.194902 l 0,-0.455529 -0.09432,0.131137 c -0.705684,0.980941 -1.759158,1.519294 -2.96421,1.519294 -1.619369,0 -2.345264,-1.163843 -2.345264,-2.319059 0,-0.65051 0.274527,-1.207843 0.793264,-1.615059 0.506105,-0.402039 1.215157,-0.621176 1.998315,-0.621176 l 2.607158,0 0.04463,-0.924863 c 0.02105,-0.63498 -0.154105,-1.168157 -0.50779,-1.546902 C 55.303916,11.542408 54.7616,11.3388 54.09381,11.3388 c -1.038315,0 -1.78442,0.50902 -2.218947,1.518431 l -0.829474,-0.444313 c 0.746106,-0.987844 1.840843,-1.508079 3.169685,-1.508079 0.895158,0 1.583158,0.236392 2.040421,0.705726 0.411789,0.422745 0.631579,1.037882 0.631579,1.777255 l 0,4.244705 c 0,0.623765 0.186105,0.88604 0.621473,0.88604 0.141474,0 0.295579,-0.05867 0.465685,-0.181177 l 0.157473,0.319216 c -0.280421,0.207921 -0.575158,0.297647 -0.950737,0.297647 l 0,0 z M 15.3216,18.9948 c -0.758737,0 -1.296,-0.534902 -1.370947,-1.364 L 13.828547,16.503192 C 13.7536,15.834565 13.4976,15.391114 13.050442,15.14782 12.674021,14.945075 12.221811,14.917467 11.7856,14.917467 l -1.635368,0 0,3.90996 -0.7494741,0 0,-7.63098 0.7494741,0 0,3.328471 1.715368,0 c 0.340211,0 0.666105,-0.01294 0.949053,-0.163922 0.320842,-0.169098 0.53221,-0.496941 0.646736,-1.001647 l 0.242527,-1.250118 c 0.126316,-0.640156 0.574316,-1.041333 1.168842,-1.041333 0.273684,0 0.453895,0.08196 0.550737,0.140628 l -0.09769,0.402039 c -0.09179,-0.03537 -0.222315,-0.06471 -0.329263,-0.06471 -0.293894,0 -0.490105,0.08455 -0.58021,0.500392 l -0.28379,1.414039 c -0.117894,0.595294 -0.528,1.016314 -1.04421,1.180236 l -0.03537,0.0095 0,0.088 0.04126,0.0086 c 0.787368,0.150118 1.344,0.639294 1.443368,1.395059 l 0.122105,1.08102 c 0.09684,0.833411 0.414316,1.254431 0.944842,1.254431 0.141474,0 0.277895,-0.02933 0.370527,-0.06384 l 0.09684,0.398588 C 15.854653,18.938722 15.622232,18.9948 15.3216,18.9948 l 0,0 z m 12.542316,0.04314 c -1.045895,0 -1.999158,-0.364941 -2.684632,-1.028392 C 24.44581,17.301231 24.0576,16.309074 24.0576,15.136604 c 0,-1.211294 0.402526,-2.255216 1.166316,-3.013569 0.735158,-0.73247 1.759158,-1.135372 2.88421,-1.135372 1.225263,0 2.247579,0.460706 2.888421,1.303608 l -0.790737,0.478823 c -0.255157,-0.628941 -0.825263,-1.34847 -2.097684,-1.34847 -0.956631,0 -1.772631,0.333882 -2.359579,0.968 -0.589473,0.638431 -0.901894,1.528784 -0.901894,2.579607 0,0.954197 0.325894,1.812628 0.914526,2.416549 0.582737,0.596157 1.401263,0.924863 2.306526,0.924863 1.077053,0 2.129684,-0.551294 2.895158,-1.518431 l 0.286316,0.231215 c -0.741895,1.318275 -1.913263,2.01451 -3.385263,2.01451 l 0,0 z m 7.898947,-7.616313 c -0.913684,0 -1.698526,0.339058 -2.269474,0.985254 -0.568421,0.643608 -0.871578,1.529648 -0.871578,2.562353 0,0.963687 0.309052,1.847138 0.869052,2.486432 0.604632,0.695372 1.462737,1.062902 2.474948,1.062902 0.847157,0 1.618526,-0.363216 2.175999,-1.021491 0.541474,-0.642745 0.839579,-1.509803 0.839579,-2.444156 0,-1.022353 -0.315789,-1.946353 -0.896842,-2.60549 -0.58021,-0.660863 -1.406315,-1.025804 -2.321684,-1.025804 l 0,0 z m 0.04042,7.616313 c -1.049263,0 -2.028631,-0.346823 -2.758737,-0.978353 -0.82021,-0.702274 -1.25221,-1.70047 -1.25221,-2.880706 0,-1.322588 0.447158,-2.422588 1.291789,-3.174901 0.736842,-0.655687 1.729685,-1.016314 2.801684,-1.016314 1.045895,0 2.005895,0.334745 2.700632,0.939529 0.803369,0.698824 1.224421,1.735843 1.224421,3.000628 0,1.244078 -0.431158,2.301803 -1.249684,3.055843 -0.727579,0.667764 -1.733053,1.054274 -2.757895,1.054274 l 0,0 z M 18.09802,21.784058 c -0.381474,0 -0.767158,-0.162196 -1.061053,-0.448627 l 0.650106,-0.667765 c 0.208842,0.270039 0.412631,0.390823 0.655158,0.390823 0.373894,0 0.64,-0.242431 0.859789,-0.78251 l 0.823579,-1.978274 -3.346526,-7.101255 0.858947,0 2.919579,6.191059 2.592,-6.191059 0.614737,0 -3.988211,9.368549 c -0.363789,0.821333 -0.879158,1.219059 -1.578105,1.219059 l 0,0 z"
             id="Fill-1"
             inkscape:connector-curvature="0" />
          <path
             d="M 89.518905,4.8086823 C 88.924379,4.9225647 88.563958,5.3737804 88.985011,5.5825647 89.001853,5.4824863 89.127326,4.863898 90.015747,4.8587216 L 89.895326,5.6766039 C 90.499958,5.625702 90.96901,5.3884471 91.181221,4.9898588 90.803958,4.8311137 90.17659,4.6792706 89.518905,4.8086823"
             id="Fill-3"
             inkscape:connector-curvature="0" />
          <path
             d="m 88.376589,3.0549804 -0.597894,3.8668235 c 0.219789,0.084549 0.709895,0.2898824 0.951579,0.3968628 0.0025,0 0.122105,-0.8083922 0.197052,-1.3355294 -0.751158,-0.3097255 -0.668631,-1.1112157 0.208,-1.458902 0.03958,-0.2821177 0.07916,-0.5469804 0.112,-0.7807843 0,0 0.05389,-0.6496471 0.993685,-0.4883137 l -0.15579,1.093098 c 0.465684,-0.017255 0.913684,0.06298 1.249684,0.1518431 0.08421,-0.5150588 -0.413473,-1.7168627 -2.958316,-1.445098"
             id="Fill-5"
             inkscape:connector-curvature="0" />
          <path
             d="M 86.896337,6.6167372 C 87.0336,5.7910902 87.202021,4.7937569 87.334232,3.9914039 l -1.282527,2.4182745 c 0.102737,0.021569 0.586948,0.1242353 0.844632,0.2070588"
             id="Fill-7"
             inkscape:connector-curvature="0" />
          <path
             d="M 93.490105,8.103851 C 93.256842,7.9338902 92.781053,7.4429882 92.432421,7.1772627 92.099789,6.9279294 91.718316,6.7389882 91.287158,6.7562431 c -1.363369,0.054353 -1.239579,1.8376471 0.09432,1.5080785 0.293052,-0.074196 0.570947,-0.2631373 0.773052,-0.5262745 0.07326,-0.081961 0.309895,-0.3105883 0.629053,-0.1052549 0.120421,0.068157 0.222316,0.169098 0.278737,0.2294901 -0.261053,0.409804 -0.64,0.7040001 -1.025684,0.8506667 -0.726737,0.2847059 -1.40379,0.2277647 -1.877053,-0.2864314 -0.629053,-0.6858823 -0.229053,-1.892 0.917053,-2.0723137 0.491789,-0.079372 0.976842,0.036235 1.399578,0.2225883 C 92.415579,6.0375765 92.095579,5.5924 91.745263,5.3137333 91.346947,5.7597725 90.596632,6.0625961 89.833684,6.1083216 L 89.544,8.1383608 C 89.504421,8.4006353 89.247579,8.4066745 89.074105,8.3040078 89.038737,8.2858902 88.370947,7.9157725 87.68379,7.568949 l -0.03958,0.2027451 c 0,0 -0.06568,0.5737255 -0.815157,0.5763137 l -0.232421,-0.00431 c 0,0 0.08505,-0.4589804 0.206315,-1.1785098 -0.128,-0.056941 -0.732631,-0.2985098 -1.509894,-0.4020392 l -0.01516,0 C 84.660632,6.6846353 83.976,6.7484784 83.630737,7.0763216 83.122947,7.5577333 83.538105,8.1564784 84.184,7.8700471 84.49979,7.7302824 84.802105,7.4171059 85.003368,7.1384392 85.074947,7.0435372 85.273684,6.8580471 85.770526,6.9417333 85.602105,7.223851 85.068211,8.0037726 84.377684,8.2505177 83.85979,8.4342824 83.424421,8.3040078 83.201263,8.0201647 83.042105,7.8053412 83.021053,7.5887922 83.055579,7.3981255 82.770105,6.8502823 82.611789,6.255851 82.610105,5.6312235 c 0,-1.3312157 0.714948,-2.5373333 1.872842,-3.4069804 l 0.0034,-0.00173 c 0.09853,-0.071608 0.412631,-0.2570981 0.757052,-0.028471 -1.363368,0.8006274 -2.24421,2.0421176 -2.238315,3.4371764 0,0.4512157 0.09263,0.8894902 0.266105,1.3036079 0.455579,-0.6030589 1.36421,-0.707451 2.232421,-0.6030589 l 1.622737,-3.0610196 c -0.538948,0.1242353 -1.056,0.2907451 -1.496421,0.4779608 -0.249263,0.1078432 -0.274527,0.056078 -0.138106,-0.067294 0.05895,-0.05349 0.72,-0.6401568 1.921685,-0.9800784 l 0.207158,-0.4080785 c 0.06063,-0.1423529 0.261052,-0.4900392 0.795789,-0.4978039 l 0.152421,0 -0.108631,0.7014118 c 0.258526,-0.026745 0.654315,-0.045725 0.938105,-0.045725 1.936,0.045725 3.003789,1.2035294 2.658526,2.3371765 0.757053,0.4417255 1.450947,1.3458823 1.295158,2.3156078 0.352,0.260549 0.639158,0.5676863 0.647579,0.5728628 0.441263,-0.6142746 0.688,-1.3156863 0.688,-2.0610981 -0.0025,-2.4122353 -2.619789,-4.356 -5.848421,-4.3516863 -0.687158,0 -1.348211,0.090588 -1.960421,0.2536471 0.268631,0.1596078 0.538947,0.4512157 0.495158,0.8636079 0,0 -0.18779,-0.4400001 -0.90779,-0.6729412 -0.514526,-0.1699608 -0.731789,-0.1406275 -0.986947,-0.1630589 0.378105,0.054353 0.721684,0.1561569 0.969263,0.2691765 0.637474,0.2881569 0.837895,0.7014118 0.837895,0.7014118 -0.102737,0.1009412 -0.681263,0.2734902 -1.187369,0.066431 -0.727579,-0.2916078 -1.206736,-1.0948235 -1.206736,-1.0948235 0,0 0.66021,-0.267451 1.333052,-0.1820392 0.794105,-0.2847059 1.680842,-0.43999999 2.613895,-0.44345097 3.445052,-0.005176 6.239158,2.12407847 6.242526,4.75199997 0,0.8610196 -0.299789,1.6659608 -0.82021,2.3656471 0.141473,0.1837647 0.22821,0.3243921 0.22821,0.3243921 0,0 -0.493473,0.1613334 -0.999579,-0.2001568 m -4.636631,2.2785097 c -2.01179,0.0043 -3.802106,-0.7195293 -4.942316,-1.8462744 0.332632,-0.1665098 0.600421,0.018118 0.706526,0.1000784 1.063579,0.8265098 2.568421,1.3510588 4.23579,1.3493333 1.676631,-0.00431 3.214316,-0.5418039 4.273684,-1.3959215 0.07411,-0.058667 0.352842,-0.2441569 0.67621,-0.080235 -1.137684,1.1388235 -2.930526,1.8721572 -4.949894,1.8730202 m -0.0076,-10.32360846 c -3.877053,0 -7.017263,2.49333336 -7.017263,5.56556866 0,3.0722353 3.14021,5.5647068 7.017263,5.5647068 3.878737,0 7.018947,-2.4924715 7.018947,-5.5647068 0,-3.0722353 -3.14021,-5.56556866 -7.018947,-5.56556866"
             id="Fill-9"
             inkscape:connector-curvature="0" />
        </g>
      </g>
    </g>
  </g>
</svg>
